Coordinates
version=1
nRows=11
nColumns=40
inDegrees=yes

Units are S.I. units (second, meters, Newtons, ...)
If the header above contains a line with 'inDegrees', this indicates whether rotational values are in degrees (yes) or radians (no).

endheader
time	pelvis_tilt	pelvis_list	pelvis_rotation	pelvis_tx	pelvis_ty	pelvis_tz	hip_flexion_r	hip_adduction_r	hip_rotation_r	knee_angle_r	knee_angle_r_beta	ankle_angle_r	subtalar_angle_r	mtp_angle_r	hip_flexion_l	hip_adduction_l	hip_rotation_l	knee_angle_l	knee_angle_l_beta	ankle_angle_l	subtalar_angle_l	mtp_angle_l	lumbar_extension	lumbar_bending	lumbar_rotation	arm_flex_r	arm_add_r	arm_rot_r	elbow_flex_r	pro_sup_r	wrist_flex_r	wrist_dev_r	arm_flex_l	arm_add_l	arm_rot_l	elbow_flex_l	pro_sup_l	wrist_flex_l	wrist_dev_l
      3.50000000	    -37.24989285	      7.12557237	      1.53383686	     -0.31024430	      0.78513408	     -1.04273844	     28.71504346	     -7.40936545	     -6.58251985	    113.55289943	      1.98187197	    -17.21808193	      0.00000000	      0.00000000	     86.57724069	      6.92818670	    -12.91048082	     80.24089825	      1.40046787	     26.77151494	      0.00000000	      0.00000000	      5.94248754	    -12.03490223	     -1.12464024	     89.95721967	    -13.31812576	     13.13674411	     46.89337578	     85.50217753	      0.00000000	      0.00000000	     89.96171470	    -20.03328177	     14.55337801	     49.90170537	     85.36459071	      0.00000000	      0.00000000
      3.50500000	    -37.34626506	      7.19139848	      1.47550538	     -0.31025536	      0.78446043	     -1.04254051	     28.80109620	     -7.41772443	     -6.47286021	    113.63824579	      1.98336155	    -17.17179464	      0.00000000	      0.00000000	     86.74527718	      6.96784232	    -12.86179319	     80.32687990	      1.40196853	     26.84072489	      0.00000000	      0.00000000	      5.98581411	    -12.10357116	     -1.01540877	     89.95738598	    -13.31519220	     13.01838238	     46.97530277	     85.53635885	      0.00000000	      0.00000000	     89.96176580	    -20.01727884	     14.51103225	     49.92937709	     85.35527922	      0.00000000	      0.00000000
      3.51000000	    -37.37387182	      7.21837029	      1.42139413	     -0.31015724	      0.78381827	     -1.04229924	     28.79884127	     -7.36189783	     -6.39870396	    113.68133761	      1.98411364	    -17.36848320	      0.00000000	      0.00000000	     86.84845016	      6.99653719	    -12.79322556	     80.44681881	      1.40406186	     26.92974029	      0.00000000	      0.00000000	      5.93509827	    -12.12979533	     -1.00013893	     89.95757302	    -13.24315949	     12.92324605	     47.08107750	     85.58096811	      0.00000000	      0.00000000	     89.96189171	    -20.08035633	     14.39216714	     50.01936270	     85.39088173	      0.00000000	      0.00000000
      3.51500000	    -37.41912200	      7.33766406	      1.35189297	     -0.31004448	      0.78323941	     -1.04214856	     28.81903639	     -7.42462638	     -6.25549371	    113.75697562	      1.98543377	    -17.46996257	      0.00000000	      0.00000000	     86.95233972	      7.06667661	    -12.78434355	     80.51997017	      1.40533859	     27.01022714	      0.00000000	      0.00000000	      5.92353500	    -12.24357791	     -0.90600813	     89.95766443	    -13.18221453	     12.86454873	     47.15322582	     85.54475674	      0.00000000	      0.00000000	     89.96197130	    -20.11693924	     14.32979473	     50.06085454	     85.35422599	      0.00000000	      0.00000000
      3.52000000	    -37.52424948	      7.35901318	      1.31742241	     -0.31008349	      0.78256522	     -1.04202816	     28.84966160	     -7.41176444	     -6.19027860	    113.80047650	      1.98619301	    -17.42201997	      0.00000000	      0.00000000	     87.12525852	      7.11952013	    -12.68192102	     80.59227036	      1.40660047	     27.05541000	      0.00000000	      0.00000000	      5.97535230	    -12.26694404	     -0.83183624	     89.95774823	    -13.18110120	     12.81704917	     47.19977253	     85.54662933	      0.00000000	      0.00000000	     89.96197519	    -20.12127557	     14.24865032	     50.09252284	     85.41631054	      0.00000000	      0.00000000
      3.52500000	    -37.63505011	      7.37040455	      1.26442499	     -0.31017702	      0.78184523	     -1.04184115	     28.93543974	     -7.33892707	     -6.12130956	    113.87303077	      1.98745932	    -17.41242140	      0.00000000	      0.00000000	     87.32110673	      7.14571850	    -12.57826386	     80.69611749	      1.40841294	     27.16647042	      0.00000000	      0.00000000	      6.03520613	    -12.27745125	     -0.71324833	     89.95792701	    -13.22092743	     12.69308999	     47.35827229	     85.49893045	      0.00000000	      0.00000000	     89.96202048	    -20.11196415	     14.29946160	     50.10211326	     85.36039316	      0.00000000	      0.00000000
      3.53000000	    -37.63064439	      7.43122533	      1.18589573	     -0.30997770	      0.78133016	     -1.04164062	     28.89260795	     -7.32909431	     -6.02673927	    113.88415632	      1.98765349	    -17.67494238	      0.00000000	      0.00000000	     87.36306906	      7.16508392	    -12.55367013	     80.78049725	      1.40988565	     27.26373637	      0.00000000	      0.00000000	      5.97672688	    -12.33785507	     -0.66969426	     89.95806819	    -13.13227209	     12.63420993	     47.37016007	     85.48655004	      0.00000000	      0.00000000	     89.96208459	    -20.13000536	     14.09857790	     50.20133566	     85.31136616	      0.00000000	      0.00000000
      3.53500000	    -37.71326663	      7.49208127	      1.14304796	     -0.31000270	      0.78068754	     -1.04146107	     28.93757155	     -7.30538968	     -5.93358754	    113.94978885	      1.98879900	    -17.65704673	      0.00000000	      0.00000000	     87.50455363	      7.22868688	    -12.49733409	     80.84093601	      1.41094050	     27.35036167	      0.00000000	      0.00000000	      6.01245912	    -12.39981430	     -0.63017769	     89.95810987	    -13.06560989	     12.57118723	     47.43985512	     85.35989048	      0.00000000	      0.00000000	     89.96222976	    -20.17692169	     14.00842777	     50.26039221	     85.22524373	      0.00000000	      0.00000000
      3.54000000	    -37.81058822	      7.45366802	      1.13412772	     -0.31010098	      0.78000088	     -1.04128424	     29.04498780	     -7.15513856	     -5.92209534	    114.04024240	      1.99037771	    -17.80723881	      0.00000000	      0.00000000	     87.68756957	      7.26185182	    -12.37101855	     80.95478137	      1.41292748	     27.41474199	      0.00000000	      0.00000000	      6.05592256	    -12.37385036	     -0.55731420	     89.95822459	    -13.12002572	     12.51385442	     47.52379187	     85.56618991	      0.00000000	      0.00000000	     89.96226198	    -20.13508869	     13.94466941	     50.29247935	     85.39130981	      0.00000000	      0.00000000
      3.54500000	    -37.87576183	      7.51745206	      1.07834289	     -0.30999541	      0.77943175	     -1.04109299	     29.08548311	     -7.15612973	     -5.82045145	    114.06711176	      1.99084667	    -17.81203882	      0.00000000	      0.00000000	     87.80931209	      7.31658828	    -12.30532968	     81.03595395	      1.41434421	     27.49441307	      0.00000000	      0.00000000	      6.06594497	    -12.43897184	     -0.52095453	     89.95834102	    -13.06756369	     12.44248329	     47.58745040	     85.61932045	      0.00000000	      0.00000000	     89.96238192	    -20.18025100	     13.81926807	     50.36077088	     85.43478719	      0.00000000	      0.00000000
      3.55000000	    -37.97489033	      7.64541923	      1.02299843	     -0.30995159	      0.77884253	     -1.04096745	     29.14256870	     -7.22390372	     -5.70055695	    114.14604832	      1.99222437	    -17.64000055	      0.00000000	      0.00000000	     87.94742245	      7.36277453	    -12.33248210	     81.04895173	      1.41457106	     27.44557187	      0.00000000	      0.00000000	      6.13849854	    -12.56875305	     -0.48328083	     89.95867004	    -12.93480570	     12.69815697	     47.63597134	     82.56919198	      0.00000000	      0.00000000	     89.96246604	    -20.21880489	     14.03220257	     50.30594215	     82.45258369	      0.00000000	      0.00000000
